<svg width="134" height="26" viewBox="0 0 134 26" fill="none" xmlns="http://www.w3.org/2000/svg">
<rect width="134" height="26" fill="white"/>
<g clip-path="url(#clip0_1_2)">
<path d="M22.803 10.4108C21.113 8.30081 18.747 6.25381 15.651 4.40681L15.639 4.40081C12.518 2.59781 9.591 1.53881 6.95 1.10481C5.299 0.833812 4.512 1.14981 4.153 1.35981C3.795 1.56981 3.132 2.10581 2.538 3.69381C1.588 6.23781 1.025 9.34281 1 12.9938V13.0068C1.025 16.6568 1.587 19.7618 2.538 22.3058C3.132 23.8938 3.795 24.4298 4.153 24.6398C4.511 24.8498 5.3 25.1658 6.949 24.8948C9.591 24.4608 12.518 23.4018 15.639 21.5998L15.651 21.5928C18.747 19.7458 21.112 17.6978 22.803 15.5888C23.859 14.2718 23.984 13.4208 23.984 12.9988C23.984 12.5788 23.859 11.7278 22.804 10.4108" fill="#FF4C00"/>
<path d="M29.986 18.42L40.136 8.572H30.257V6.065H44.062V8.935L33.912 18.782H44.304V21.29H29.986V18.42ZM44.787 17.151C44.787 13.768 47.687 12.831 50.254 12.5L55.027 11.895C56.175 11.745 56.507 11.231 56.507 10.536V10.506C56.507 9.146 55.329 8.15 52.762 8.15C50.285 8.15 48.895 9.086 48.653 10.657H45.451C45.814 7.576 48.502 5.673 52.852 5.673C57.716 5.673 59.709 7.727 59.709 11.11V21.29H56.659V18.873C55.359 20.746 53.033 21.683 50.405 21.683C46.931 21.683 44.787 19.931 44.787 17.151ZM56.507 14.403V13.678C55.994 13.889 55.42 14.01 54.785 14.1L50.979 14.614C49.016 14.886 48.109 15.611 48.109 16.94C48.109 18.36 49.318 19.206 51.281 19.206C54.514 19.206 56.507 17 56.507 14.403ZM61.13 2.199H64.332V21.289H61.13V2.199ZM65.389 17.151C65.389 13.768 68.289 12.831 70.856 12.5L75.629 11.895C76.777 11.745 77.109 11.231 77.109 10.536V10.506C77.109 9.146 75.931 8.15 73.363 8.15C70.886 8.15 69.497 9.086 69.255 10.657H66.053C66.416 7.576 69.104 5.673 73.454 5.673C78.317 5.673 80.311 7.727 80.311 11.11V21.29H77.261V18.873C75.961 20.746 73.635 21.683 71.007 21.683C67.533 21.683 65.389 19.931 65.389 17.151ZM77.109 14.403V13.678C76.596 13.889 76.022 14.01 75.387 14.1L71.581 14.614C69.618 14.886 68.711 15.611 68.711 16.94C68.711 18.36 69.92 19.206 71.883 19.206C75.115 19.206 77.109 17 77.109 14.403ZM81.73 6.065H84.933V8.542C86.08 6.73 88.255 5.672 90.913 5.672C94.901 5.672 97.257 7.968 97.257 12.198V21.29H94.055V12.65C94.055 9.841 92.575 8.3 89.856 8.3C86.926 8.3 84.933 10.264 84.933 13.043V21.29H81.73V6.065ZM98.315 13.617C98.315 8.693 101.728 5.672 105.806 5.672C108.253 5.672 110.368 6.548 111.636 8.361V2.199H114.838V21.289H111.636V18.964C110.247 20.837 108.253 21.682 105.806 21.682C101.728 21.682 98.315 18.602 98.315 13.617ZM111.727 13.647C111.727 10.475 109.854 8.27 106.682 8.27C103.541 8.27 101.638 10.445 101.638 13.617C101.638 16.819 103.541 19.085 106.682 19.085C109.854 19.085 111.727 16.819 111.727 13.647ZM115.896 13.647C115.896 8.965 119.068 5.673 124.293 5.673C129.55 5.673 132.691 8.965 132.691 13.647C132.691 18.329 129.55 21.683 124.293 21.683C119.068 21.683 115.896 18.33 115.896 13.647ZM129.368 13.647C129.368 10.687 127.737 8.271 124.293 8.271C120.849 8.271 119.219 10.687 119.219 13.647C119.219 16.638 120.85 19.085 124.293 19.085C127.737 19.085 129.368 16.638 129.368 13.647Z" fill="black"/>
</g>
<defs>
<clipPath id="clip0_1_2">
<rect width="132" height="24" fill="white" transform="translate(1 1)"/>
</clipPath>
</defs>
</svg>
